<svg
  xmlns="http://www.w3.org/2000/svg"
  xmlns:xlink="http://www.w3.org/1999/xlink"
  version="1.1"
  width="3666.666666666667"
  height="1849.1643533368817"
  viewBox="0 0 3666.666666666667 1849.1643533368817"
>
  <rect fill="#a0e4b0" width="3666.666666666667" height="1849.1643533368817" />
  <g transform="scale(33.333333333333336) translate(10, 10)">
    <defs id="SvgjsDefs9302"></defs>
    <g
      id="SvgjsG9303"
      featureKey="SbCDzn-0"
      transform="matrix(1.7952057356589504,0,0,1.7952057356589504,-1.7952056286563502,-12.997289115280816)"
      fill="#111111"
    >
      <path
        d="M6.34 20.12 c-0.96 0 -1.92 -0.18 -2.84 -0.54 c-0.92 -0.34 -1.74 -0.84 -2.42 -1.44 c-0.08 -0.08 -0.1 -0.2 -0.06 -0.3 l0.7 -2.38 c0.04 -0.08 0.1 -0.14 0.18 -0.14 c0.08 -0.02 0.16 0 0.22 0.06 c1.06 1 2.26 1.9 3.76 1.98 c0.4 0.02 0.84 0.04 1.22 -0.08 c1.18 -0.38 0.68 -1.58 -0.2 -1.94 c-0.3 -0.12 -0.72 -0.26 -1.26 -0.42 c-0.8 -0.22 -1.46 -0.46 -1.96 -0.7 c-0.54 -0.24 -1 -0.62 -1.4 -1.12 c-0.38 -0.52 -0.58 -1.2 -0.58 -2.02 c0 -0.78 0.2 -1.46 0.6 -2.04 s0.96 -1.04 1.66 -1.34 s1.52 -0.46 2.44 -0.46 c0.82 0 1.62 0.12 2.42 0.38 c0.78 0.24 1.48 0.58 2.1 0.98 c0.1 0.08 0.14 0.2 0.08 0.32 l-0.66 2.24 c-0.02 0.08 -0.08 0.12 -0.16 0.14 c-0.06 0.02 -0.14 0.02 -0.2 -0.02 c-0.9 -0.56 -1.8 -1.24 -2.86 -1.38 c-0.7 -0.1 -1.76 -0.06 -2 0.78 c-0.3 1.08 1.28 1.36 2 1.58 c0.8 0.24 1.46 0.48 1.98 0.72 c0.54 0.26 1.02 0.66 1.4 1.16 c0.4 0.52 0.6 1.22 0.6 2.06 c0 0.82 -0.22 1.52 -0.64 2.12 c-0.4 0.6 -0.98 1.04 -1.7 1.36 c-0.72 0.28 -1.52 0.44 -2.42 0.44 z M15.9345 20 c-0.12 0 -0.22 -0.08 -0.24 -0.18 l-3.88 -11.98 c-0.04 -0.08 -0.02 -0.16 0.04 -0.24 c0.04 -0.06 0.12 -0.1 0.2 -0.1 l2.8 0 c0.1 0 0.22 0.08 0.24 0.18 l2.08 7.22 l1.9 -6.86 c0.02 -0.12 0.12 -0.2 0.24 -0.2 l2.54 0 c0.12 0 0.22 0.08 0.26 0.2 l1.92 6.86 l2.04 -7.22 c0.04 -0.1 0.14 -0.18 0.26 -0.18 l2.68 0 c0.08 0 0.16 0.04 0.2 0.1 c0.06 0.08 0.06 0.16 0.04 0.24 l-3.9 11.98 c-0.04 0.1 -0.12 0.18 -0.24 0.18 l-2.34 0 c-0.12 0 -0.22 -0.08 -0.24 -0.18 l-2 -7.1 l-2.04 7.1 c-0.02 0.1 -0.12 0.18 -0.24 0.18 l-2.32 0 z M28.229000000000003 20 c-0.08 0 -0.16 -0.04 -0.2 -0.12 c-0.06 -0.06 -0.06 -0.16 -0.04 -0.24 l4.66 -11.98 c0.04 -0.1 0.14 -0.16 0.24 -0.16 l2.68 0 c0.1 0 0.2 0.06 0.24 0.16 l4.58 11.98 c0.02 0.08 0.02 0.16 -0.04 0.24 c-0.04 0.08 -0.12 0.12 -0.2 0.12 l-2.78 0 c-0.1 0 -0.2 -0.06 -0.24 -0.16 l-0.74 -1.84 l-4.5 0.02 l-0.74 1.82 c-0.04 0.1 -0.14 0.16 -0.24 0.16 l-2.68 0 z M32.709 15.5 l2.88 0 l-1.44 -4.24 z M41.343500000000006 20 c-0.14 0 -0.24 -0.12 -0.24 -0.26 l0 -11.98 c0 -0.14 0.1 -0.26 0.24 -0.26 l4.9 0 c1.52 0 2.72 0.38 3.56 1.16 c1.24 1.12 1.66 3.24 1.06 4.8 c-0.22 0.56 -0.6 1.08 -1.08 1.46 c-1.62 1.26 -3.64 1.14 -5.58 1.14 l0 3.68 c0 0.14 -0.12 0.26 -0.26 0.26 l-2.6 0 z M44.203500000000005 13.280000000000001 c0 0 2.52 0.28 3.4 -0.3 c0.34 -0.22 0.54 -0.76 0.54 -1.16 c-0.02 -0.44 -0.24 -0.9 -0.6 -1.18 c-0.38 -0.32 -1.32 -0.42 -1.8 -0.42 l-1.54 0.04 l0 3.02 z"
      ></path>
    </g>
    <g
      id="SvgjsG9304"
      featureKey="m0CQaI-0"
      transform="matrix(0.17115699197048687,0,0,0.17115699197048687,16.726148951591043,32.003866277350724)"
      fill="#111111"
    >
      <path
        d="M4.72 17.46 q0.22 0.02 0.51 0.03 t0.69 0.01 q2.34 0 3.47 -1.18 t1.13 -3.26 q0 -2.18 -1.08 -3.3 t-3.42 -1.12 q-0.32 0 -0.66 0.01 t-0.64 0.05 l0 8.76 z M13.74 13.059999999999999 q0 1.8 -0.56 3.14 t-1.59 2.22 t-2.51 1.32 t-3.32 0.44 q-0.84 0 -1.96 -0.07 t-2.2 -0.29 l0 -13.5 q1.08 -0.2 2.25 -0.27 t2.01 -0.07 q1.78 0 3.23 0.4 t2.49 1.26 t1.6 2.2 t0.56 3.22 z M17.237000000000002 6.140000000000001 l3.12 0 l0 13.86 l-3.12 0 l0 -13.86 z M28.233999999999998 17.62 q0.66 0 1.09 -0.11 t0.69 -0.3 t0.36 -0.45 t0.1 -0.58 q0 -0.68 -0.64 -1.13 t-2.2 -0.97 q-0.68 -0.24 -1.36 -0.55 t-1.22 -0.78 t-0.88 -1.14 t-0.34 -1.63 t0.36 -1.73 t1.02 -1.31 t1.6 -0.83 t2.12 -0.29 q1.4 0 2.42 0.3 t1.68 0.66 l-0.9 2.46 q-0.58 -0.3 -1.29 -0.53 t-1.71 -0.23 q-1.12 0 -1.61 0.31 t-0.49 0.95 q0 0.38 0.18 0.64 t0.51 0.47 t0.76 0.38 t0.95 0.35 q1.08 0.4 1.88 0.79 t1.33 0.91 t0.79 1.22 t0.26 1.7 q0 1.94 -1.36 3.01 t-4.1 1.07 q-0.92 0 -1.66 -0.11 t-1.31 -0.27 t-0.98 -0.34 t-0.69 -0.34 l0.88 -2.48 q0.62 0.34 1.53 0.61 t2.23 0.27 z M43.311 20.28 q-3.38 0 -5.15 -1.88 t-1.77 -5.34 q0 -1.72 0.54 -3.07 t1.48 -2.28 t2.24 -1.41 t2.82 -0.48 q0.88 0 1.6 0.13 t1.26 0.3 t0.9 0.35 t0.52 0.28 l-0.9 2.52 q-0.64 -0.34 -1.49 -0.58 t-1.93 -0.24 q-0.72 0 -1.41 0.24 t-1.22 0.77 t-0.85 1.37 t-0.32 2.04 q0 0.96 0.21 1.79 t0.68 1.43 t1.23 0.95 t1.84 0.35 q0.68 0 1.22 -0.08 t0.96 -0.19 t0.74 -0.25 t0.58 -0.26 l0.86 2.5 q-0.66 0.4 -1.86 0.72 t-2.78 0.32 z M53.467999999999996 13.059999999999999 q0 1.02 0.25 1.84 t0.72 1.41 t1.15 0.91 t1.56 0.32 q0.86 0 1.55 -0.32 t1.16 -0.91 t0.72 -1.41 t0.25 -1.84 t-0.25 -1.85 t-0.72 -1.42 t-1.16 -0.91 t-1.55 -0.32 q-0.88 0 -1.56 0.33 t-1.15 0.92 t-0.72 1.42 t-0.25 1.83 z M64.048 13.059999999999999 q0 1.78 -0.53 3.13 t-1.45 2.26 t-2.19 1.37 t-2.73 0.46 q-1.42 0 -2.68 -0.46 t-2.2 -1.37 t-1.48 -2.26 t-0.54 -3.13 t0.56 -3.13 t1.51 -2.27 t2.2 -1.38 t2.63 -0.46 q1.42 0 2.68 0.46 t2.2 1.38 t1.48 2.27 t0.54 3.13 z M71.66499999999999 20 q-0.82 -1.74 -1.62 -3.62 t-1.52 -3.72 t-1.33 -3.52 t-1.05 -3 l3.44 0 q0.4 1.2 0.87 2.59 t0.96 2.77 t0.95 2.64 t0.86 2.18 q0.38 -0.92 0.85 -2.18 t0.96 -2.64 t0.96 -2.77 t0.87 -2.59 l3.32 0 q-0.46 1.32 -1.06 3 t-1.32 3.52 t-1.52 3.72 t-1.62 3.62 l-3 0 z M82.88199999999999 20 l0 -13.86 l9.36 0 l0 2.62 l-6.24 0 l0 2.72 l5.54 0 l0 2.56 l-5.54 0 l0 3.34 l6.7 0 l0 2.62 l-9.82 0 z M99.95899999999999 5.98 q3.12 0 4.78 1.11 t1.66 3.45 q0 1.46 -0.67 2.37 t-1.93 1.43 q0.42 0.52 0.88 1.19 t0.91 1.4 t0.87 1.52 t0.78 1.55 l-3.5 0 q-0.38 -0.68 -0.77 -1.38 t-0.8 -1.36 t-0.81 -1.25 t-0.8 -1.07 l-1.54 0 l0 5.06 l-3.12 0 l0 -13.66 q1.02 -0.2 2.11 -0.28 t1.95 -0.08 z M100.139 8.64 q-0.34 0 -0.61 0.02 t-0.51 0.04 l0 3.76 l0.88 0 q1.76 0 2.52 -0.44 t0.76 -1.5 q0 -1.02 -0.77 -1.45 t-2.27 -0.43 z M112.856 18.42 q0 0.9 -0.57 1.37 t-1.29 0.47 t-1.29 -0.47 t-0.57 -1.37 t0.57 -1.37 t1.29 -0.47 t1.29 0.47 t0.57 1.37 z M125.32999999999998 6.140000000000001 q0.36 0.66 0.83 1.63 t0.98 2.1 t1.01 2.31 t0.94 2.22 q0.44 -1.04 0.94 -2.22 t1.01 -2.31 t0.98 -2.1 t0.83 -1.63 l2.84 0 q0.2 1.38 0.37 3.09 t0.3 3.56 t0.24 3.71 t0.19 3.5 l-3.04 0 q-0.06 -2.02 -0.16 -4.4 t-0.3 -4.8 q-0.36 0.84 -0.8 1.86 t-0.87 2.04 t-0.83 1.95 t-0.68 1.59 l-2.18 0 q-0.28 -0.66 -0.68 -1.59 t-0.83 -1.95 t-0.87 -2.04 t-0.8 -1.86 q-0.2 2.42 -0.3 4.8 t-0.16 4.4 l-3.04 0 q0.08 -1.64 0.19 -3.5 t0.24 -3.71 t0.3 -3.56 t0.37 -3.09 l2.98 0 z M149.76699999999997 20 q-0.22 -0.72 -0.49 -1.48 t-0.53 -1.52 l-5.4 0 q-0.26 0.76 -0.53 1.52 t-0.49 1.48 l-3.24 0 q0.78 -2.24 1.48 -4.14 t1.37 -3.58 t1.32 -3.19 t1.35 -2.95 l2.98 0 q0.68 1.44 1.34 2.95 t1.33 3.19 t1.37 3.58 t1.48 4.14 l-3.34 0 z M146.02699999999996 9.28 q-0.1 0.3 -0.3 0.82 t-0.46 1.2 t-0.57 1.5 t-0.63 1.72 l3.94 0 q-0.32 -0.9 -0.62 -1.72 t-0.57 -1.5 t-0.47 -1.2 t-0.32 -0.82 z M166.08399999999997 6.140000000000001 l0 2.66 l-4.18 0 l0 11.2 l-3.12 0 l0 -11.2 l-4.18 0 l0 -2.66 l11.48 0 z M175.30099999999996 20.28 q-3.38 0 -5.15 -1.88 t-1.77 -5.34 q0 -1.72 0.54 -3.07 t1.48 -2.28 t2.24 -1.41 t2.82 -0.48 q0.88 0 1.6 0.13 t1.26 0.3 t0.9 0.35 t0.52 0.28 l-0.9 2.52 q-0.64 -0.34 -1.49 -0.58 t-1.93 -0.24 q-0.72 0 -1.41 0.24 t-1.22 0.77 t-0.85 1.37 t-0.32 2.04 q0 0.96 0.21 1.79 t0.68 1.43 t1.23 0.95 t1.84 0.35 q0.68 0 1.22 -0.08 t0.96 -0.19 t0.74 -0.25 t0.58 -0.26 l0.86 2.5 q-0.66 0.4 -1.86 0.72 t-2.78 0.32 z M191.19799999999998 6.140000000000001 l3.12 0 l0 13.86 l-3.12 0 l0 -5.88 l-5.24 0 l0 5.88 l-3.12 0 l0 -13.86 l3.12 0 l0 5.3 l5.24 0 l0 -5.3 z M201.13499999999996 18.42 q0 0.9 -0.57 1.37 t-1.29 0.47 t-1.29 -0.47 t-0.57 -1.37 t0.57 -1.37 t1.29 -0.47 t1.29 0.47 t0.57 1.37 z M209.92899999999997 20 l0 -13.86 l9.36 0 l0 2.62 l-6.24 0 l0 2.72 l5.54 0 l0 2.56 l-5.54 0 l0 3.34 l6.7 0 l0 2.62 l-9.82 0 z M230.90599999999998 20 q-0.58 -1.16 -1.27 -2.35 t-1.59 -2.43 q-0.28 0.36 -0.71 1 t-0.86 1.36 t-0.81 1.38 t-0.56 1.04 l-3.56 0 q0.88 -1.62 2.05 -3.4 t2.61 -3.78 l-4.46 -6.68 l3.78 0 l2.7 4.32 l2.64 -4.32 l3.56 0 l-4.4 6.72 q1.68 2.18 2.82 4.03 t1.8 3.11 l-3.74 0 z M243.66299999999995 20.28 q-3.38 0 -5.15 -1.88 t-1.77 -5.34 q0 -1.72 0.54 -3.07 t1.48 -2.28 t2.24 -1.41 t2.82 -0.48 q0.88 0 1.6 0.13 t1.26 0.3 t0.9 0.35 t0.52 0.28 l-0.9 2.52 q-0.64 -0.34 -1.49 -0.58 t-1.93 -0.24 q-0.72 0 -1.41 0.24 t-1.22 0.77 t-0.85 1.37 t-0.32 2.04 q0 0.96 0.21 1.79 t0.68 1.43 t1.23 0.95 t1.84 0.35 q0.68 0 1.22 -0.08 t0.96 -0.19 t0.74 -0.25 t0.58 -0.26 l0.86 2.5 q-0.66 0.4 -1.86 0.72 t-2.78 0.32 z M259.55999999999995 6.140000000000001 l3.12 0 l0 13.86 l-3.12 0 l0 -5.88 l-5.24 0 l0 5.88 l-3.12 0 l0 -13.86 l3.12 0 l0 5.3 l5.24 0 l0 -5.3 z M276.05699999999996 20 q-0.22 -0.72 -0.49 -1.48 t-0.53 -1.52 l-5.4 0 q-0.26 0.76 -0.53 1.52 t-0.49 1.48 l-3.24 0 q0.78 -2.24 1.48 -4.14 t1.37 -3.58 t1.32 -3.19 t1.35 -2.95 l2.98 0 q0.68 1.44 1.34 2.95 t1.33 3.19 t1.37 3.58 t1.48 4.14 l-3.34 0 z M272.31699999999995 9.28 q-0.1 0.3 -0.3 0.82 t-0.46 1.2 t-0.57 1.5 t-0.63 1.72 l3.94 0 q-0.32 -0.9 -0.62 -1.72 t-0.57 -1.5 t-0.47 -1.2 t-0.32 -0.82 z M291.39399999999995 20 q-1.34 -2.38 -2.9 -4.7 t-3.32 -4.38 l0 9.08 l-3.08 0 l0 -13.86 l2.54 0 q0.66 0.66 1.46 1.62 t1.63 2.05 t1.65 2.26 t1.54 2.25 l0 -8.18 l3.1 0 l0 13.86 l-2.62 0 z M304.871 8.54 q-2.18 0 -3.15 1.21 t-0.97 3.31 q0 1.02 0.24 1.85 t0.72 1.43 t1.2 0.93 t1.68 0.33 q0.52 0 0.89 -0.02 t0.65 -0.08 l0 -4.82 l3.12 0 l0 6.86 q-0.56 0.22 -1.8 0.47 t-3.06 0.25 q-1.56 0 -2.83 -0.48 t-2.17 -1.4 t-1.39 -2.26 t-0.49 -3.06 q0 -1.74 0.54 -3.08 t1.48 -2.27 t2.21 -1.41 t2.71 -0.48 q0.98 0 1.77 0.13 t1.36 0.3 t0.94 0.35 t0.53 0.28 l-0.9 2.5 q-0.64 -0.34 -1.47 -0.59 t-1.81 -0.25 z M313.048 20 l0 -13.86 l9.36 0 l0 2.62 l-6.24 0 l0 2.72 l5.54 0 l0 2.56 l-5.54 0 l0 3.34 l6.7 0 l0 2.62 l-9.82 0 z M328.78499999999997 18.42 q0 0.9 -0.57 1.37 t-1.29 0.47 t-1.29 -0.47 t-0.57 -1.37 t0.57 -1.37 t1.29 -0.47 t1.29 0.47 t0.57 1.37 z"
      ></path>
    </g>
  </g>
</svg>
