<svg
  xmlns="http://www.w3.org/2000/svg"
  xmlns:xlink="http://www.w3.org/1999/xlink"
  version="1.1"
  viewBox="333.33 333.33 3000 770.74"
>
  <g transform="scale(33.333333333333336) translate(10, 10)">
    <defs id="SvgjsDefs9302"></defs>
    <g
      id="SvgjsG9303"
      featurekey="SbCDzn-0"
      transform="matrix(1.7952057356589504,0,0,1.7952057356589504,-1.7952056286563502,-12.997289115280816)"
      fill="#92e0a0"
    >
      <path
        d="M6.34 20.12 c-0.96 0 -1.92 -0.18 -2.84 -0.54 c-0.92 -0.34 -1.74 -0.84 -2.42 -1.44 c-0.08 -0.08 -0.1 -0.2 -0.06 -0.3 l0.7 -2.38 c0.04 -0.08 0.1 -0.14 0.18 -0.14 c0.08 -0.02 0.16 0 0.22 0.06 c1.06 1 2.26 1.9 3.76 1.98 c0.4 0.02 0.84 0.04 1.22 -0.08 c1.18 -0.38 0.68 -1.58 -0.2 -1.94 c-0.3 -0.12 -0.72 -0.26 -1.26 -0.42 c-0.8 -0.22 -1.46 -0.46 -1.96 -0.7 c-0.54 -0.24 -1 -0.62 -1.4 -1.12 c-0.38 -0.52 -0.58 -1.2 -0.58 -2.02 c0 -0.78 0.2 -1.46 0.6 -2.04 s0.96 -1.04 1.66 -1.34 s1.52 -0.46 2.44 -0.46 c0.82 0 1.62 0.12 2.42 0.38 c0.78 0.24 1.48 0.58 2.1 0.98 c0.1 0.08 0.14 0.2 0.08 0.32 l-0.66 2.24 c-0.02 0.08 -0.08 0.12 -0.16 0.14 c-0.06 0.02 -0.14 0.02 -0.2 -0.02 c-0.9 -0.56 -1.8 -1.24 -2.86 -1.38 c-0.7 -0.1 -1.76 -0.06 -2 0.78 c-0.3 1.08 1.28 1.36 2 1.58 c0.8 0.24 1.46 0.48 1.98 0.72 c0.54 0.26 1.02 0.66 1.4 1.16 c0.4 0.52 0.6 1.22 0.6 2.06 c0 0.82 -0.22 1.52 -0.64 2.12 c-0.4 0.6 -0.98 1.04 -1.7 1.36 c-0.72 0.28 -1.52 0.44 -2.42 0.44 z M15.9345 20 c-0.12 0 -0.22 -0.08 -0.24 -0.18 l-3.88 -11.98 c-0.04 -0.08 -0.02 -0.16 0.04 -0.24 c0.04 -0.06 0.12 -0.1 0.2 -0.1 l2.8 0 c0.1 0 0.22 0.08 0.24 0.18 l2.08 7.22 l1.9 -6.86 c0.02 -0.12 0.12 -0.2 0.24 -0.2 l2.54 0 c0.12 0 0.22 0.08 0.26 0.2 l1.92 6.86 l2.04 -7.22 c0.04 -0.1 0.14 -0.18 0.26 -0.18 l2.68 0 c0.08 0 0.16 0.04 0.2 0.1 c0.06 0.08 0.06 0.16 0.04 0.24 l-3.9 11.98 c-0.04 0.1 -0.12 0.18 -0.24 0.18 l-2.34 0 c-0.12 0 -0.22 -0.08 -0.24 -0.18 l-2 -7.1 l-2.04 7.1 c-0.02 0.1 -0.12 0.18 -0.24 0.18 l-2.32 0 z M28.229000000000003 20 c-0.08 0 -0.16 -0.04 -0.2 -0.12 c-0.06 -0.06 -0.06 -0.16 -0.04 -0.24 l4.66 -11.98 c0.04 -0.1 0.14 -0.16 0.24 -0.16 l2.68 0 c0.1 0 0.2 0.06 0.24 0.16 l4.58 11.98 c0.02 0.08 0.02 0.16 -0.04 0.24 c-0.04 0.08 -0.12 0.12 -0.2 0.12 l-2.78 0 c-0.1 0 -0.2 -0.06 -0.24 -0.16 l-0.74 -1.84 l-4.5 0.02 l-0.74 1.82 c-0.04 0.1 -0.14 0.16 -0.24 0.16 l-2.68 0 z M32.709 15.5 l2.88 0 l-1.44 -4.24 z M41.343500000000006 20 c-0.14 0 -0.24 -0.12 -0.24 -0.26 l0 -11.98 c0 -0.14 0.1 -0.26 0.24 -0.26 l4.9 0 c1.52 0 2.72 0.38 3.56 1.16 c1.24 1.12 1.66 3.24 1.06 4.8 c-0.22 0.56 -0.6 1.08 -1.08 1.46 c-1.62 1.26 -3.64 1.14 -5.58 1.14 l0 3.68 c0 0.14 -0.12 0.26 -0.26 0.26 l-2.6 0 z M44.203500000000005 13.280000000000001 c0 0 2.52 0.28 3.4 -0.3 c0.34 -0.22 0.54 -0.76 0.54 -1.16 c-0.02 -0.44 -0.24 -0.9 -0.6 -1.18 c-0.38 -0.32 -1.32 -0.42 -1.8 -0.42 l-1.54 0.04 l0 3.02 z"
      ></path>
    </g>
  </g>
</svg>
